<svg width="33" height="32" viewBox="0 0 33 32" fill="none" xmlns="http://www.w3.org/2000/svg">
<path d="M25.5833 4C26.2906 4 26.9689 4.28095 27.469 4.78105C27.969 5.28115 28.25 5.95942 28.25 6.66667V25.3333C28.25 26.0406 27.969 26.7189 27.469 27.219C26.9689 27.719 26.2906 28 25.5833 28H6.91667C6.20942 28 5.53115 27.719 5.03105 27.219C4.53095 26.7189 4.25 26.0406 4.25 25.3333V6.66667C4.25 5.95942 4.53095 5.28115 5.03105 4.78105C5.53115 4.28095 6.20942 4 6.91667 4H25.5833ZM24.9167 24.6667V17.6C24.9167 16.4472 24.4587 15.3416 23.6436 14.5264C22.8284 13.7113 21.7228 13.2533 20.57 13.2533C19.4367 13.2533 18.1167 13.9467 17.4767 14.9867V13.5067H13.7567V24.6667H17.4767V18.0933C17.4767 17.0667 18.3033 16.2267 19.33 16.2267C19.8251 16.2267 20.2999 16.4233 20.6499 16.7734C21 17.1235 21.1967 17.5983 21.1967 18.0933V24.6667H24.9167ZM9.42333 11.4133C10.0174 11.4133 10.5872 11.1773 11.0073 10.7573C11.4273 10.3372 11.6633 9.76742 11.6633 9.17333C11.6633 7.93333 10.6633 6.92 9.42333 6.92C8.82571 6.92 8.25257 7.1574 7.82999 7.57999C7.4074 8.00257 7.17 8.57571 7.17 9.17333C7.17 10.4133 8.18333 11.4133 9.42333 11.4133ZM11.2767 24.6667V13.5067H7.58333V24.6667H11.2767Z" fill="white"/>
</svg>
