<svg width="33" height="32" viewBox="0 0 33 32" fill="none" xmlns="http://www.w3.org/2000/svg">
<path d="M30.1961 7.99967C29.1694 8.46634 28.0627 8.77301 26.9161 8.91967C28.0894 8.21301 28.9961 7.09301 29.4227 5.74634C28.3161 6.41301 27.0894 6.87967 25.7961 7.14634C24.7427 5.99967 23.2627 5.33301 21.5827 5.33301C18.4494 5.33301 15.8894 7.89301 15.8894 11.053C15.8894 11.5063 15.9427 11.9463 16.0361 12.3597C11.2894 12.1197 7.06273 9.83967 4.2494 6.38634C3.75607 7.22634 3.47607 8.21301 3.47607 9.25301C3.47607 11.2397 4.47607 12.9997 6.02273 13.9997C5.07607 13.9997 4.19607 13.733 3.42273 13.333V13.373C3.42273 16.1463 5.39607 18.4663 8.0094 18.9863C7.17052 19.2169 6.28945 19.2489 5.43607 19.0797C5.79821 20.2163 6.50745 21.2109 7.46409 21.9236C8.42073 22.6363 9.57666 23.0313 10.7694 23.053C8.74763 24.6537 6.24141 25.5189 3.66273 25.5063C3.2094 25.5063 2.75607 25.4797 2.30273 25.4263C4.83607 27.053 7.8494 27.9997 11.0761 27.9997C21.5827 27.9997 27.3561 19.2797 27.3561 11.7197C27.3561 11.4663 27.3561 11.2263 27.3427 10.973C28.4627 10.173 29.4227 9.15967 30.1961 7.99967Z" fill="white"/>
</svg>
