<svg width="33" height="32" viewBox="0 0 33 32" fill="none" xmlns="http://www.w3.org/2000/svg">
<path d="M10.6503 2.66699H21.8503C26.117 2.66699 29.5837 6.13366 29.5837 10.4003V21.6003C29.5837 23.6513 28.7689 25.6183 27.3186 27.0686C25.8683 28.5189 23.9013 29.3337 21.8503 29.3337H10.6503C6.38366 29.3337 2.91699 25.867 2.91699 21.6003V10.4003C2.91699 8.34932 3.73175 6.38231 5.18203 4.93203C6.63231 3.48175 8.59932 2.66699 10.6503 2.66699ZM10.3837 5.33366C9.11062 5.33366 7.88972 5.83937 6.98955 6.73955C6.08937 7.63972 5.58366 8.86062 5.58366 10.1337V21.867C5.58366 24.5203 7.73033 26.667 10.3837 26.667H22.117C23.39 26.667 24.6109 26.1613 25.5111 25.2611C26.4113 24.3609 26.917 23.14 26.917 21.867V10.1337C26.917 7.48033 24.7703 5.33366 22.117 5.33366H10.3837ZM23.2503 7.33366C23.6924 7.33366 24.1163 7.50925 24.4288 7.82181C24.7414 8.13437 24.917 8.5583 24.917 9.00033C24.917 9.44235 24.7414 9.86628 24.4288 10.1788C24.1163 10.4914 23.6924 10.667 23.2503 10.667C22.8083 10.667 22.3844 10.4914 22.0718 10.1788C21.7593 9.86628 21.5837 9.44235 21.5837 9.00033C21.5837 8.5583 21.7593 8.13437 22.0718 7.82181C22.3844 7.50925 22.8083 7.33366 23.2503 7.33366ZM16.2503 9.33366C18.0184 9.33366 19.7141 10.036 20.9644 11.2863C22.2146 12.5365 22.917 14.2322 22.917 16.0003C22.917 17.7684 22.2146 19.4641 20.9644 20.7144C19.7141 21.9646 18.0184 22.667 16.2503 22.667C14.4822 22.667 12.7865 21.9646 11.5363 20.7144C10.286 19.4641 9.58366 17.7684 9.58366 16.0003C9.58366 14.2322 10.286 12.5365 11.5363 11.2863C12.7865 10.036 14.4822 9.33366 16.2503 9.33366ZM16.2503 12.0003C15.1895 12.0003 14.172 12.4218 13.4219 13.1719C12.6718 13.922 12.2503 14.9395 12.2503 16.0003C12.2503 17.0612 12.6718 18.0786 13.4219 18.8288C14.172 19.5789 15.1895 20.0003 16.2503 20.0003C17.3112 20.0003 18.3286 19.5789 19.0788 18.8288C19.8289 18.0786 20.2503 17.0612 20.2503 16.0003C20.2503 14.9395 19.8289 13.922 19.0788 13.1719C18.3286 12.4218 17.3112 12.0003 16.2503 12.0003Z" fill="white"/>
</svg>
