<svg width="63" height="63" viewBox="0 0 63 63" fill="none" xmlns="http://www.w3.org/2000/svg">
<g clip-path="url(#clip0_79_4042)">
<path d="M52.1475 8.10242C47.5253 4.04071 41.8025 1.44084 35.7028 0.631589C29.603 -0.177667 23.4003 0.840037 17.879 3.55601C12.3576 6.27197 7.76562 10.5642 4.68369 15.89C1.60176 21.2157 0.16831 27.3358 0.564606 33.4762C0.960902 39.6166 3.16915 45.5016 6.91009 50.387C10.651 55.2724 15.7567 58.9388 21.5813 60.9225C27.406 62.9062 33.6881 63.1182 39.6332 61.5315C45.5783 59.9449 50.9195 56.631 54.9812 52.0088C60.4278 45.8107 63.1891 37.7028 62.6577 29.4688C62.1262 21.2347 58.3456 13.549 52.1475 8.10242ZM13.6418 51.9213C9.59742 48.3673 6.69773 43.6938 5.30944 38.4918C3.92115 33.2898 4.10661 27.793 5.84235 22.6964C7.57809 17.5998 10.7862 13.1324 15.0609 9.85906C19.3356 6.58573 24.485 4.65352 29.8579 4.30676C35.2308 3.96 40.5858 5.21427 45.2458 7.91096C49.9058 10.6076 53.6616 14.6256 56.038 19.4568C58.4145 24.288 59.305 29.7154 58.5969 35.0527C57.8888 40.39 55.6139 45.3974 52.0599 49.4418C47.2942 54.8651 40.5692 58.1732 33.3644 58.6382C26.1596 59.1032 19.0652 56.687 13.6418 51.9213Z" fill="#27697B"/>
<path d="M44.2304 17.3491L23.3474 18.6968C23.0795 18.6934 22.8137 18.7454 22.5668 18.8496C22.3199 18.9538 22.0972 19.1078 21.9126 19.3022C21.7281 19.4965 21.5857 19.7269 21.4944 19.9788C21.4032 20.2308 21.365 20.4989 21.3822 20.7664C21.3995 21.0338 21.4718 21.2948 21.5947 21.5329C21.7176 21.771 21.8884 21.9812 22.0964 22.1502C22.3044 22.3192 22.5451 22.4434 22.8033 22.5149C23.0616 22.5865 23.3318 22.6039 23.5972 22.5661L37.6215 21.6885L18.3687 43.5979C18.0283 43.9853 17.8557 44.4921 17.8889 45.0067C17.9221 45.5213 18.1584 46.0017 18.5458 46.3421C18.9332 46.6825 19.4399 46.8551 19.9546 46.8219C20.4692 46.7887 20.9495 46.5524 21.2899 46.165L40.7738 23.9927L41.7089 38.4818C41.7055 38.7497 41.7575 39.0155 41.8617 39.2624C41.9659 39.5093 42.1199 39.7321 42.3143 39.9166C42.5086 40.1011 42.739 40.2435 42.9909 40.3348C43.2429 40.4261 43.511 40.4643 43.7785 40.447C44.0459 40.4297 44.3069 40.3574 44.545 40.2345C44.7831 40.1116 44.9933 39.9408 45.1623 39.7328C45.3313 39.5248 45.4555 39.2841 45.527 39.0259C45.5986 38.7676 45.616 38.4974 45.5782 38.2321L44.2304 17.3491Z" fill="#27697B"/>
</g>
<defs>
<clipPath id="clip0_79_4042">
<rect width="62.2223" height="62.2223" fill="white" transform="translate(0.5 0.361328)"/>
</clipPath>
</defs>
</svg>
