<svg width="400" height="113" viewBox="0 0 400 113" fill="none" xmlns="http://www.w3.org/2000/svg">
<g clip-path="url(#clip0_79_4123)">
<path d="M44.7061 13.1113C60.1011 13.1113 72.9605 23.9181 76.1301 38.3472L88.8386 38.2566C85.4879 16.9148 67.0138 0.583984 44.7061 0.583984C20.0136 0.583984 0 20.5976 0 45.29C0 47.3729 0 49.3954 0.42261 51.3877L13.0405 51.1462H20.7381C23.5152 62.0133 33.356 70.0429 45.0683 70.0429C58.954 70.0429 70.2438 58.7834 70.2438 44.8674C70.2438 30.9515 58.9842 19.692 45.0683 19.692C33.4767 19.692 23.7265 27.5404 20.8286 38.1962H13.282C16.4818 23.7973 29.3412 13.0208 44.7061 13.0208" fill="white"/>
<path d="M32.209 44.8994C32.209 37.7754 37.9746 32.0098 45.0986 32.0098C52.2226 32.0098 57.9882 37.7754 57.9882 44.8994C57.9882 52.0234 52.2226 57.789 45.0986 57.789C37.9746 57.789 32.209 52.0234 32.209 44.8994Z" fill="#00ADDC"/>
<path fill-rule="evenodd" clip-rule="evenodd" d="M115.885 59.5979H125.544V38.9806H151.686V59.5979H161.345V14.9824H151.686V33.8187H125.544V14.9824H115.885V59.5979Z" fill="white"/>
<path fill-rule="evenodd" clip-rule="evenodd" d="M373.739 59.5979H383.399V20.1745H400.001V14.9824H357.137V20.1745H373.739V59.5979Z" fill="white"/>
<path fill-rule="evenodd" clip-rule="evenodd" d="M297.125 59.5979H306.754V38.9806H332.926V59.5979H342.586V14.9824H332.926V33.8187H306.754V14.9824H297.125V59.5979Z" fill="white"/>
<path fill-rule="evenodd" clip-rule="evenodd" d="M278.017 51.6598C276.266 52.3843 270.681 55.1615 262.471 55.1615C248.676 55.1615 244.631 46.9507 244.631 35.7516C244.631 29.6841 246.351 19.4509 258.909 19.4509C268.267 19.4509 269.444 24.4921 269.444 27.2088H280.643C280.643 19.5717 272.825 14.2891 259.211 14.2891C239.801 14.2891 234.035 24.975 234.035 36.8081C234.035 54.2559 245.898 60.3535 260.569 60.3535C268.387 60.3535 275.24 58.5423 278.047 57.6971V51.69L278.017 51.6598Z" fill="white"/>
<path fill-rule="evenodd" clip-rule="evenodd" d="M183.201 59.5979H220.844V54.436H192.861V38.9806H218.64V33.8187H192.861V20.1745H219.968V14.9824H183.201V59.5979Z" fill="white"/>
<path d="M124.156 98.2956C126.842 99.7446 129.619 101.284 129.619 105.329C129.619 110.732 125.273 112.513 120.835 112.513C117.817 112.513 116.036 112 115.432 111.88V109.616C116.277 109.887 117.967 110.4 121.379 110.4C124.427 110.4 127.386 108.68 127.386 105.661C127.386 102.31 124.367 101.194 122.797 100.288L120.684 99.1409C118.33 97.8428 115.16 96.4241 115.16 92.5602C115.16 91.4735 115.613 86.0098 122.978 86.0098C125.001 86.0098 127.174 86.4022 128.08 86.6437V88.9982C127.265 88.6964 125.333 88.153 122.978 88.153C119.115 88.153 117.394 89.9944 117.394 92.4093C117.394 94.8242 119.839 96.0317 121.952 97.1787L124.156 98.3258V98.2956Z" fill="white"/>
<path d="M138.225 86.4043H140.972V89.4229H138.225V86.4043ZM138.647 94.3735H140.519V112.093H138.647V94.3735Z" fill="white"/>
<path d="M161.679 112.184C160.924 112.365 160.049 112.516 158.63 112.516C152.593 112.516 149.967 108.622 149.967 102.977C149.967 97.6641 151.899 93.9512 156.668 93.9512C161.77 93.9512 162.343 97.8452 162.343 99.4753H159.928C159.928 97.5132 158.842 95.7624 156.638 95.7624C153.287 95.7624 152.201 99.4149 152.201 102.675C152.201 107.656 154.374 110.735 158.932 110.735C160.381 110.735 161.015 110.554 161.679 110.403V112.184Z" fill="white"/>
<path d="M170.946 86.4043H172.818V98.7203H172.878C173.421 96.9997 174.478 93.9509 178.764 93.9509C179.73 93.9509 183.413 94.5244 183.413 98.992V112.093H181.542V100.924C181.542 99.0826 181.542 95.7621 178.372 95.7621C175.202 95.7621 172.788 100.501 172.788 105.331V112.123H170.916V86.4345L170.946 86.4043Z" fill="white"/>
<path d="M201.827 112.364C201.193 112.485 200.559 112.515 199.926 112.515C195.307 112.515 195.216 109.497 195.216 108.169V96.1845H192.379V94.4035H195.216V90.2982L197.088 89.0605V94.3734H201.827V96.1544H197.088V107.354C197.088 108.531 197.088 110.704 199.986 110.704C201.073 110.704 201.314 110.523 201.797 110.372V112.364H201.827Z" fill="white"/>
<path d="M211.577 97.7231H211.637C212.06 96.3346 213.297 93.9498 216.588 93.9498C220.995 93.9498 222.746 98.6589 222.746 103.398C222.746 108.469 220.663 112.484 215.893 112.484C211.577 112.484 209.705 109.073 209.705 104.817V86.373H211.577V97.6929V97.7231ZM215.893 110.733C219.274 110.733 220.512 107.021 220.512 103.398C220.512 100.349 219.546 95.761 216.376 95.761C213.207 95.761 211.637 100.078 211.637 103.7C211.637 106.719 212.392 110.733 215.893 110.733Z" fill="white"/>
<path d="M240.465 109.618H240.405C239.741 110.584 238.141 112.516 234.881 112.516C231.379 112.516 230.383 109.769 230.383 107.777C230.383 102.071 238.292 102.101 240.465 102.071C240.465 101.136 240.465 98.9319 240.314 98.298C239.861 96.185 238.05 95.7322 236.631 95.7322C233.824 95.7322 233.251 97.1811 232.949 98.5999H230.685C230.685 96.7283 232.103 93.9512 236.782 93.9512C242.246 93.9512 242.337 97.6037 242.337 99.9885V112.093H240.465V109.588V109.618ZM238.624 103.883C235.333 103.883 232.617 105.15 232.617 107.867C232.617 109.407 233.884 110.282 235.243 110.282C237.114 110.282 238.835 109.165 239.65 107.837C240.193 106.841 240.465 105.935 240.465 103.883H238.594H238.624Z" fill="white"/>
<path d="M252.993 94.3729H254.865V97.9953H254.925C255.71 95.7917 257.28 93.9805 260.54 93.9805V96.003C255.77 96.003 254.834 101.467 254.834 104.968V112.122H252.963V94.4031L252.993 94.3729Z" fill="white"/>
<path d="M283.904 97.7231H283.994C284.417 96.3346 285.655 93.9498 288.945 93.9498C293.352 93.9498 295.103 98.6589 295.103 103.398C295.103 108.469 293.02 112.484 288.251 112.484C283.934 112.484 282.062 109.073 282.062 104.817V86.373H283.934V97.6929L283.904 97.7231ZM288.221 110.733C291.601 110.733 292.839 107.021 292.839 103.398C292.839 100.349 291.873 95.761 288.703 95.761C285.534 95.761 283.964 100.078 283.964 103.7C283.964 106.719 284.719 110.733 288.221 110.733Z" fill="white"/>
<path d="M315.118 112.062C314.031 112.334 312.733 112.515 311.254 112.515C305.82 112.515 302.832 108.983 302.832 102.765C302.832 96.9085 305.247 93.9805 309.564 93.9805C313.88 93.9805 315.48 97.3613 315.48 100.35V101.286H305.096C305.066 101.919 305.066 102.523 305.066 103.097C305.066 104.425 305.096 110.734 311.888 110.734C312.884 110.734 314.242 110.553 315.118 110.251V112.062ZM313.277 99.4744C313.277 98.3877 312.522 95.7615 309.564 95.7615C306.303 95.7615 305.579 98.3273 305.368 99.4744H313.307H313.277Z" fill="white"/>
<path d="M330.15 102.191C332.021 103.097 334.316 103.942 334.316 107.142C334.316 109.738 332.927 112.515 327.524 112.515C325.894 112.515 323.75 112.062 322.875 111.76V109.859C323.449 110.04 325.562 110.704 327.524 110.704C330.663 110.704 332.082 109.285 332.082 107.353C332.082 105.27 330.029 104.485 328.912 103.972L327.433 103.278C325.682 102.433 322.996 101.497 322.996 98.6594C322.996 95.9728 324.686 93.9805 328.852 93.9805C330.905 93.9805 332.384 94.4031 333.169 94.5842V96.5161C332.504 96.3048 330.935 95.7615 329.003 95.7615C326.558 95.7615 325.23 96.9085 325.23 98.2971C325.23 100.138 327.131 100.772 328.61 101.467L330.12 102.221L330.15 102.191Z" fill="white"/>
<path d="M348.412 102.191C350.283 103.097 352.577 103.942 352.577 107.142C352.577 109.738 351.189 112.515 345.785 112.515C344.155 112.515 342.012 112.062 341.137 111.76V109.859C341.68 110.04 343.823 110.704 345.785 110.704C348.925 110.704 350.344 109.285 350.344 107.353C350.344 105.27 348.291 104.485 347.174 103.972L345.665 103.278C343.914 102.433 341.227 101.497 341.227 98.6594C341.227 95.9728 342.918 93.9805 347.083 93.9805C349.136 93.9805 350.615 94.4031 351.4 94.5842V96.5161C350.736 96.3048 349.166 95.7615 347.234 95.7615C344.789 95.7615 343.461 96.9085 343.461 98.2971C343.461 100.138 345.363 100.772 346.842 101.467L348.381 102.221L348.412 102.191Z" fill="white"/>
<path d="M371.895 112.062C370.809 112.334 369.511 112.515 368.031 112.515C362.598 112.515 359.609 108.983 359.609 102.765C359.609 96.9085 362.024 93.9805 366.341 93.9805C370.658 93.9805 372.257 97.3613 372.257 100.35V101.286H361.873C361.843 101.919 361.843 102.523 361.843 103.097C361.843 104.425 361.873 110.734 368.665 110.734C369.661 110.734 371.02 110.553 371.895 110.251V112.062ZM370.024 99.4744C370.024 98.3877 369.269 95.7615 366.311 95.7615C363.02 95.7615 362.326 98.3273 362.115 99.4744H370.054H370.024Z" fill="white"/>
<path d="M381.406 94.3729H383.278V97.9953H383.368C384.153 95.7917 385.723 93.9805 388.983 93.9805V96.003C384.214 96.003 383.278 101.467 383.278 104.968V112.122H381.406V94.4031V94.3729Z" fill="white"/>
</g>
<defs>
<clipPath id="clip0_79_4123">
<rect width="400" height="111.931" fill="white" transform="translate(0 0.583984)"/>
</clipPath>
</defs>
</svg>
