<svg width="24" height="24" viewBox="0 0 24 24" fill="none" xmlns="http://www.w3.org/2000/svg">
<path fill-rule="evenodd" clip-rule="evenodd" d="M1.49964 12.0003C1.49964 11.8014 1.57865 11.6106 1.71931 11.4699C1.85996 11.3293 2.05072 11.2503 2.24964 11.2503H19.9391L15.2186 6.53127C15.0778 6.39044 14.9987 6.19944 14.9987 6.00027C14.9987 5.80111 15.0778 5.6101 15.2186 5.46927C15.3595 5.32844 15.5505 5.24933 15.7496 5.24933C15.9488 5.24933 16.1398 5.32844 16.2806 5.46927L22.2806 11.4693C22.3505 11.5389 22.4059 11.6217 22.4437 11.7128C22.4815 11.8039 22.501 11.9016 22.501 12.0003C22.501 12.0989 22.4815 12.1966 22.4437 12.2877C22.4059 12.3788 22.3505 12.4616 22.2806 12.5313L16.2806 18.5313C16.2109 18.601 16.1281 18.6563 16.037 18.6941C15.9459 18.7318 15.8483 18.7512 15.7496 18.7512C15.5505 18.7512 15.3595 18.6721 15.2186 18.5313C15.0778 18.3904 14.9987 18.1994 14.9987 18.0003C14.9987 17.8011 15.0778 17.6101 15.2186 17.4693L19.9391 12.7503H2.24964C2.05072 12.7503 1.85996 12.6713 1.71931 12.5306C1.57865 12.39 1.49964 12.1992 1.49964 12.0003Z" fill="#27697B"/>
</svg>
