<svg width="80" height="80" viewBox="0 0 80 80" fill="none" xmlns="http://www.w3.org/2000/svg">
<circle cx="40" cy="40" r="40" fill="#27697B"/>
<g clip-path="url(#clip0_79_1189)">
<path d="M50.1808 31.6031C50.0901 31.345 49.9343 31.1147 49.7284 30.9346C49.5225 30.7544 49.2736 30.6305 49.0058 30.5749C48.6573 30.5321 48.3037 30.5658 47.9696 30.6737C47.6354 30.7817 47.3289 30.9613 47.0714 31.1999C46.862 31.4062 46.737 31.5343 46.3277 37.0999C46.137 39.6937 45.9558 42.6406 45.9558 43.1656C45.9558 43.5718 45.8058 44.9343 45.6433 46.3249C45.6089 46.2437 45.5745 46.1593 45.5402 46.0624C45.0495 44.7156 43.9152 43.5624 42.3402 42.8281C41.2902 42.3343 40.2652 42.3718 39.5995 42.9343C39.3578 43.1332 39.1785 43.3976 39.0832 43.6958C38.9879 43.994 38.9805 44.3133 39.062 44.6156C39.2214 45.1937 39.6308 45.7656 40.1058 46.4312C40.5423 46.9942 40.9252 47.5968 41.2495 48.2312C41.5327 48.8902 41.7636 49.5704 41.9402 50.2656C42.1441 51.0816 42.4267 51.8759 42.7839 52.6374C42.9527 52.9656 43.1339 53.3156 43.3214 53.6718C43.9028 54.7196 44.4245 55.7994 44.8839 56.9062C45.4277 58.3718 47.6683 59.7374 47.9214 59.8874C48.0624 59.9511 48.222 59.9603 48.3694 59.9131C48.5167 59.8659 48.6414 59.7658 48.7191 59.632C48.7969 59.4983 48.8223 59.3404 48.7904 59.189C48.7585 59.0376 48.6715 58.9034 48.5464 58.8124C47.7339 58.3281 46.3339 57.2499 46.0464 56.4687C45.5752 55.3122 45.0368 54.1842 44.4339 53.0906C44.2495 52.7374 44.0683 52.3937 43.9027 52.0687C43.5752 51.3807 43.3146 50.6628 43.1245 49.9249C42.9304 49.1665 42.6765 48.4246 42.3652 47.7062C42.0124 47.0007 41.5939 46.33 41.1152 45.7031C40.764 45.2731 40.4757 44.7954 40.2589 44.2843C40.2372 44.212 40.2378 44.1349 40.2607 44.063C40.2836 43.991 40.3276 43.9277 40.387 43.8812C40.6027 43.6968 41.087 43.6218 41.7902 43.9499C43.5058 44.7562 44.1277 45.8812 44.3464 46.4812C44.5554 47.1213 44.9131 47.7028 45.3902 48.1781C45.3339 48.6156 45.2839 49.0031 45.2464 49.2906C45.2346 49.3734 45.2396 49.4579 45.261 49.5388C45.2824 49.6197 45.3199 49.6955 45.3712 49.7617C45.4225 49.8278 45.4866 49.883 45.5596 49.924C45.6327 49.9649 45.7132 49.9907 45.7964 49.9999H45.8808C46.0334 50.0012 46.1812 49.9466 46.2963 49.8465C46.4114 49.7463 46.486 49.6075 46.5058 49.4562C46.5777 48.9124 47.2152 44.1156 47.2152 43.1593C47.2152 41.9968 47.8183 33.3437 48.062 32.0062C48.2696 31.8617 48.5188 31.7893 48.7714 31.7999C48.8183 31.7999 48.9277 31.8343 49.0308 32.0781C49.2214 32.5999 49.2495 35.8093 49.1808 39.7374V39.8062C49.1808 39.8062 49.1808 39.8062 49.1808 39.8281C49.1433 41.9374 49.0777 44.2499 48.9964 46.4593C48.9933 46.5414 49.0064 46.6233 49.035 46.7003C49.0636 46.7773 49.107 46.8479 49.1629 46.9081C49.2188 46.9683 49.2859 47.0169 49.3606 47.0512C49.4352 47.0854 49.5159 47.1047 49.598 47.1077C49.68 47.1108 49.7619 47.0977 49.8389 47.0691C49.9159 47.0406 49.9866 46.9971 50.0468 46.9413C50.107 46.8854 50.1556 46.8182 50.1899 46.7436C50.2241 46.6689 50.2433 46.5883 50.2464 46.5062C50.2964 45.1343 50.3902 42.4031 50.437 39.6312C50.4405 39.545 50.4641 39.4609 50.5059 39.3855C50.5476 39.3101 50.6065 39.2454 50.6777 39.1968C50.8854 39.0952 51.1118 39.037 51.3428 39.0257C51.5738 39.0144 51.8047 39.0503 52.0214 39.1312C52.4995 39.3374 52.4995 39.9812 52.4995 39.9999C52.4995 40.0468 52.5964 44.7593 52.5777 45.8218C52.5777 45.9876 52.6435 46.1465 52.7607 46.2637C52.8779 46.381 53.0369 46.4468 53.2027 46.4468C53.3684 46.4468 53.5274 46.381 53.6446 46.2637C53.7618 46.1465 53.8277 45.9876 53.8277 45.8218C53.8433 44.9531 53.787 41.8562 53.762 40.5406C54.0163 40.5285 54.2702 40.5692 54.5079 40.6601C54.7456 40.751 54.962 40.8901 55.1433 41.0687C55.362 41.3218 55.5995 42.3187 55.687 43.0687V43.0906C55.687 43.0906 55.687 43.1062 55.687 43.1156C55.864 44.1963 55.8714 45.2981 55.7089 46.3812C55.6945 46.462 55.6962 46.5449 55.7138 46.6251C55.7315 46.7053 55.7648 46.7813 55.8118 46.8486C55.8588 46.9159 55.9186 46.9733 55.9878 47.0175C56.0571 47.0617 56.1343 47.0918 56.2152 47.1062C56.2515 47.1094 56.2881 47.1094 56.3245 47.1062C56.473 47.1085 56.6174 47.0578 56.7319 46.9634C56.8464 46.8689 56.9236 46.7367 56.9495 46.5906C57.1046 45.6138 57.1298 44.6208 57.0245 43.6374C57.2196 43.6767 57.4073 43.7463 57.5808 43.8437C58.0777 44.1249 58.412 44.6437 58.4089 46.2656C58.4089 46.8562 58.4714 47.7343 58.5433 48.7656C58.6745 50.6406 58.8558 52.9781 58.662 54.3906C58.3933 56.4906 57.2808 59.0781 57.2714 59.1187C57.2344 59.1947 57.2132 59.2774 57.2091 59.3618C57.205 59.4462 57.218 59.5306 57.2474 59.6099C57.2769 59.6891 57.3221 59.7615 57.3803 59.8228C57.4385 59.8841 57.5086 59.9329 57.5862 59.9663C57.6638 59.9998 57.7474 60.0171 57.832 60.0173C57.9165 60.0175 58.0002 60.0005 58.078 59.9674C58.1557 59.9343 58.226 59.8858 58.2845 59.8248C58.343 59.7638 58.3885 59.6915 58.4183 59.6124C58.4683 59.4999 59.6089 56.8281 59.8995 54.5499C60.0933 53.0312 59.9245 50.6249 59.787 48.6937C59.7183 47.6999 59.6558 46.8437 59.6558 46.2968C59.6558 44.9687 59.4839 43.5156 58.1933 42.7843C57.78 42.5512 57.3198 42.4134 56.8464 42.3812C56.737 41.7343 56.5058 40.7562 56.0839 40.2718C55.7703 39.9448 55.3892 39.6899 54.9673 39.5247C54.5453 39.3596 54.0925 39.2882 53.6402 39.3156C53.5605 39.0234 53.4168 38.7527 53.2195 38.523C53.0222 38.2932 52.7763 38.1103 52.4995 37.9874C51.844 37.7475 51.1273 37.7321 50.462 37.9437C50.4808 34.9218 50.4308 32.1874 50.1808 31.6031Z" fill="white"/>
<path d="M43.0002 34.2843C43.0002 32.7589 42.5479 31.2678 41.7004 29.9994C40.8529 28.7311 39.6484 27.7426 38.2391 27.1589C36.8299 26.5751 35.2791 26.4224 33.7831 26.72C32.287 27.0176 30.9128 27.7521 29.8341 28.8307C28.7555 29.9093 28.021 31.2836 27.7234 32.7796C27.4258 34.2757 27.5785 35.8265 28.1623 37.2357C28.746 38.645 29.7345 39.8495 31.0029 40.697C32.2712 41.5444 33.7623 41.9968 35.2877 41.9968C37.3324 41.9943 39.2927 41.1809 40.7385 39.7351C42.1844 38.2893 42.9977 36.329 43.0002 34.2843ZM35.2877 40.7468C34.0095 40.7468 32.7601 40.3678 31.6973 39.6577C30.6346 38.9475 29.8063 37.9382 29.3171 36.7574C28.828 35.5765 28.7 34.2771 28.9494 33.0235C29.1987 31.7699 29.8142 30.6184 30.718 29.7146C31.6218 28.8108 32.7733 28.1953 34.0269 27.946C35.2805 27.6966 36.5799 27.8246 37.7608 28.3137C38.9417 28.8028 39.951 29.6312 40.6611 30.6939C41.3712 31.7567 41.7502 33.0061 41.7502 34.2843C41.7485 35.9977 41.0671 37.6405 39.8555 38.8521C38.644 40.0637 37.0012 40.7451 35.2877 40.7468Z" fill="white"/>
<path d="M20.6026 37.0906L23.8932 38.125C24.4019 39.6312 25.2026 41.0223 26.2495 42.2187L25.512 45.5906C25.4862 45.7048 25.4931 45.8239 25.5318 45.9344C25.5705 46.0449 25.6394 46.1424 25.7307 46.2156C26.9382 47.1837 28.2859 47.9624 29.7276 48.525C29.8365 48.5675 29.9551 48.5786 30.07 48.557C30.1849 48.5355 30.2915 48.4822 30.3776 48.4031L32.9245 46.0718C33.7013 46.2274 34.4916 46.3059 35.2839 46.3062C36.0909 46.325 36.8971 46.2431 37.6839 46.0625C37.8455 46.0256 37.9858 45.926 38.074 45.7857C38.1622 45.6453 38.1911 45.4756 38.1542 45.314C38.1173 45.1524 38.0177 45.0121 37.8774 44.9239C37.737 44.8357 37.5674 44.8068 37.4057 44.8437C36.7104 45.0045 35.9973 45.0759 35.2839 45.0562C34.4741 45.0559 33.667 44.9647 32.8776 44.7843C32.7794 44.762 32.6773 44.7636 32.5799 44.7892C32.4825 44.8148 32.3927 44.8635 32.3182 44.9312L29.8182 47.2156C28.7479 46.7636 27.738 46.1799 26.812 45.4781L27.5495 42.1875C27.5711 42.0888 27.5684 41.9864 27.5417 41.8889C27.5151 41.7915 27.4652 41.702 27.3964 41.6281C26.2937 40.4331 25.4744 39.0051 24.9995 37.45C24.9698 37.3532 24.917 37.2651 24.8457 37.1932C24.7743 37.1214 24.6866 37.0679 24.5901 37.0375L21.3557 36.0187C21.2135 34.8658 21.2135 33.6998 21.3557 32.5468L24.5776 31.5281C24.6765 31.4994 24.7667 31.4467 24.8403 31.3748C24.9139 31.3028 24.9686 31.2138 24.9995 31.1156C25.4798 29.5638 26.3033 28.1401 27.4089 26.95C27.4777 26.876 27.5276 26.7865 27.5542 26.6891C27.5809 26.5917 27.5836 26.4893 27.562 26.3906L26.8182 23.0906C27.7443 22.3889 28.7542 21.8052 29.8245 21.3531L32.3245 23.6343C32.399 23.7021 32.4888 23.7508 32.5862 23.7764C32.6836 23.8019 32.7857 23.8036 32.8839 23.7812C34.4665 23.4189 36.1106 23.4189 37.6932 23.7812C37.7914 23.8036 37.8935 23.8019 37.9909 23.7764C38.0883 23.7508 38.1781 23.7021 38.2526 23.6343L40.7526 21.3531C41.8197 21.8059 42.8263 22.3895 43.7495 23.0906L43.0245 26.3937C43.0029 26.4924 43.0056 26.5948 43.0322 26.6922C43.0589 26.7897 43.1088 26.8792 43.1776 26.9531C44.1278 27.9709 44.8708 29.1639 45.3651 30.4656C45.3942 30.5423 45.4382 30.6126 45.4945 30.6723C45.5508 30.7321 45.6183 30.7802 45.6932 30.8138C45.768 30.8475 45.8488 30.8661 45.9308 30.8685C46.0129 30.871 46.0946 30.8572 46.1714 30.8281C46.2481 30.799 46.3184 30.755 46.3781 30.6987C46.4379 30.6424 46.4859 30.5749 46.5196 30.5C46.5532 30.4252 46.5718 30.3444 46.5743 30.2624C46.5767 30.1803 46.563 30.0986 46.5339 30.0218C46.0227 28.6743 45.2721 27.4304 44.3182 26.35L45.0589 22.975C45.0846 22.8608 45.0777 22.7416 45.0391 22.6311C45.0004 22.5206 44.9314 22.4232 44.8401 22.35C43.6324 21.3831 42.2847 20.6054 40.8432 20.0437C40.7343 20.0012 40.6157 19.9901 40.5008 20.0116C40.3859 20.0332 40.2793 20.0865 40.1932 20.1656L37.6464 22.5C36.0889 22.1877 34.485 22.1877 32.9276 22.5L30.3776 20.1625C30.2912 20.0839 30.1845 20.0312 30.0696 20.0102C29.9547 19.9892 29.8362 20.0008 29.7276 20.0437C28.287 20.6067 26.9404 21.3854 25.7339 22.3531C25.6425 22.4263 25.5736 22.5237 25.5349 22.6342C25.4962 22.7447 25.4894 22.8639 25.5151 22.9781L26.2495 26.3468C25.2 27.5406 24.3961 28.9296 23.8839 30.4343L20.6026 31.475C20.4908 31.51 20.3911 31.5757 20.3148 31.6647C20.2386 31.7536 20.1889 31.8622 20.1714 31.9781C19.9403 33.5069 19.9403 35.0618 20.1714 36.5906C20.1894 36.7059 20.2394 36.8138 20.3156 36.9022C20.3918 36.9906 20.4912 37.0558 20.6026 37.0906Z" fill="white"/>
<path d="M44.1098 42.4469C44.6203 41.9468 45.0076 41.3349 45.241 40.6594C45.2841 40.5028 45.2646 40.3356 45.1866 40.1931C45.1085 40.0507 44.9781 39.9442 44.8229 39.8963C44.6677 39.8483 44.5 39.8627 44.3552 39.9363C44.2104 40.0099 44.1 40.137 44.0473 40.2906C43.8645 40.7905 43.5695 41.2416 43.1848 41.6094C43.1057 41.6994 43.0541 41.8103 43.0363 41.9288C43.0184 42.0473 43.035 42.1685 43.0841 42.2778C43.1332 42.3871 43.2126 42.4801 43.313 42.5455C43.4134 42.6109 43.5305 42.6461 43.6504 42.6469C43.7366 42.647 43.8219 42.6293 43.901 42.5949C43.9801 42.5605 44.0511 42.5101 44.1098 42.4469Z" fill="white"/>
</g>
<defs>
<clipPath id="clip0_79_1189">
<rect width="40" height="40" fill="white" transform="translate(20 20)"/>
</clipPath>
</defs>
</svg>
