<svg width="80" height="80" viewBox="0 0 80 80" fill="none" xmlns="http://www.w3.org/2000/svg">
<circle cx="40" cy="40" r="40" fill="#27697B"/>
<g clip-path="url(#clip0_79_1252)">
<path d="M29.1385 27.3806C29.4621 27.3806 29.7245 27.1182 29.7245 26.7946C29.7245 26.471 29.4621 26.2087 29.1385 26.2087C28.8149 26.2087 28.5526 26.471 28.5526 26.7946C28.5526 27.1182 28.8148 27.3806 29.1385 27.3806ZM24.451 27.3806C24.7746 27.3806 25.037 27.1182 25.037 26.7946C25.037 26.471 24.7746 26.2087 24.451 26.2087C24.1274 26.2087 23.8651 26.471 23.8651 26.7946C23.8651 27.1182 24.1273 27.3806 24.451 27.3806ZM26.7948 27.3806C27.1184 27.3806 27.3807 27.1182 27.3807 26.7946C27.3807 26.471 27.1184 26.2087 26.7948 26.2087C26.4712 26.2087 26.2088 26.471 26.2088 26.7946C26.2088 27.1182 26.4711 27.3806 26.7948 27.3806ZM26.6663 33.5878C26.6698 33.5879 26.6734 33.5879 26.677 33.5879L31.9746 33.5892H31.9749C32.3409 33.5892 32.6516 33.3521 32.7483 32.9992C32.845 32.646 32.6982 32.2836 32.3832 32.0973L31.5775 31.6206C32.8725 30.337 33.6009 28.5858 33.5893 26.751C33.5661 23.0816 30.5628 20.0535 26.8945 20.0007C23.0934 19.9461 20 23.0209 20 26.7948C20 30.4138 22.9819 33.5095 26.6663 33.5878ZM22.8477 22.7901C23.9281 21.7251 25.3563 21.1513 26.8777 21.1724C29.9131 21.2161 32.3982 23.7219 32.4174 26.7583C32.4278 28.3965 31.7253 29.9544 30.49 31.0324C30.2834 31.2125 30.1752 31.4829 30.2002 31.7556C30.2252 32.0282 30.3809 32.2742 30.6165 32.4135L30.6223 32.4169L26.6828 32.416C23.6373 32.3575 21.1719 29.8486 21.1719 26.7948C21.1719 25.2775 21.767 23.8553 22.8477 22.7901ZM59.4141 58.8281H58.8281V50.1024C58.8281 47.8163 57.4773 45.7403 55.3801 44.8107L52.2921 43.4872C53.0435 43.2501 53.7223 42.8273 54.2747 42.2408C55.108 41.356 55.5859 40.1555 55.5859 38.947C55.5859 37.8365 55.198 36.7884 54.4638 35.9156C53.5455 34.8252 53.0398 33.4395 53.0398 32.0134V29.2056C53.0398 26.7463 52.0821 24.4348 50.3432 22.6967C48.6043 20.9577 46.2925 20 43.8336 20C38.7577 20 34.6281 24.1295 34.6281 29.2055V31.9219C34.6284 33.3975 34.0485 34.806 33.1062 35.9414C31.9202 37.3703 31.6738 39.3023 32.4632 40.9833C33.0491 42.2311 34.106 43.1276 35.3713 43.507L32.3048 44.8405C30.1535 45.7458 28.7634 47.8388 28.7634 50.1727V57.0704C28.7634 57.394 29.0256 57.6563 29.3493 57.6563C29.673 57.6563 29.9352 57.394 29.9352 57.0704V50.1727C29.9352 48.3117 31.0437 46.6425 32.7658 45.9179L36.6094 44.2465V47.7735H34.8435C34.3459 47.7735 33.8695 47.9856 33.5366 48.3556C33.2038 48.7256 33.043 49.2217 33.0955 49.7165L34.0614 58.8281H20.5859C20.2623 58.8281 20 59.0905 20 59.4141C20 59.7377 20.2623 60 20.5859 60H59.4141C59.7377 60 60 59.7377 60 59.4141C60 59.0905 59.7377 58.8281 59.4141 58.8281ZM53.5673 36.6702C54.1213 37.3288 54.4141 38.116 54.4141 38.9469C54.4141 39.8599 54.0523 40.7676 53.4216 41.4373C52.7538 42.1463 51.8364 42.5367 50.8384 42.5367H50.0748L49.0717 42.1068C48.1955 41.731 47.5962 40.9255 47.4737 39.9982C49.2816 39.0248 50.5134 37.1143 50.5134 34.9211V30.5162C50.6848 30.5278 50.8562 30.5342 51.027 30.5342C51.3088 30.5342 51.5895 30.5181 51.868 30.4866V32.0133C51.868 33.7152 52.4716 35.3691 53.5673 36.6702ZM43.976 45.9202C41.8798 45.9574 39.7995 45.6917 37.7812 45.132V43.7369L37.9507 43.6632C37.952 43.6627 37.9534 43.662 37.9548 43.6615L39.0001 43.207C40.1637 42.7011 40.9859 41.665 41.2352 40.4542C41.7455 40.6026 42.284 40.6837 42.8415 40.6837H44.7508C45.3104 40.6837 45.8509 40.602 46.3629 40.4525C46.6204 41.6577 47.4458 42.6845 48.6099 43.1839L49.7255 43.662C49.7262 43.6624 49.727 43.6627 49.7277 43.6629L49.8103 43.6983V45.0168C47.914 45.5818 45.9535 45.8857 43.976 45.9202ZM49.8102 46.2368V47.7735H37.7812V46.3454C39.6808 46.8435 41.6311 47.0955 43.5946 47.0955C43.7285 47.0955 43.8625 47.0943 43.9965 47.092C45.9645 47.0576 47.9163 46.77 49.8102 46.2368ZM51.868 29.305C50.254 29.5231 48.4347 29.0907 47.1813 28.1195C46.9255 27.9214 46.5575 27.968 46.3592 28.2238C46.161 28.4796 46.2077 28.8477 46.4635 29.0459C47.283 29.6807 48.2713 30.1279 49.3415 30.3534V33.5433C49.0599 34.185 48.7465 34.7187 48.0398 35.3017C47.7423 35.5471 47.4167 35.751 47.068 35.9127C46.7832 35.357 46.2048 34.9756 45.5387 34.9756H44.1656C43.2185 34.9756 42.448 35.7461 42.448 36.6931C42.448 37.6402 43.2185 38.4107 44.1656 38.4107H45.5387C46.3358 38.4107 47.0077 37.8649 47.2005 37.1276C47.9844 36.8289 49.2624 35.7635 49.2627 35.7631C48.8659 37.8933 46.9944 39.5115 44.7509 39.5115H42.8414C40.3102 39.5115 38.2508 37.4522 38.2508 34.9209V30.3917C40.2409 30.0797 42.1209 29.4063 43.8452 28.3864C46.4705 26.8335 48.1545 24.8043 49.1707 23.2011C50.9095 24.7498 51.8987 26.97 51.868 29.305ZM46.0843 36.6948C46.0834 36.995 45.8391 37.239 45.5387 37.239H44.1655C43.8646 37.239 43.6198 36.9942 43.6198 36.6933C43.6198 36.3924 43.8647 36.1476 44.1655 36.1476H45.5387C45.839 36.1476 46.0833 36.3914 46.0843 36.6915V36.6948ZM35.8 29.2055C35.8 24.7757 39.4038 21.1719 43.8336 21.1719C45.4223 21.1719 46.9404 21.6305 48.2377 22.4842C47.3024 23.9834 45.7283 25.9112 43.2485 27.3781C41.5473 28.3843 39.6813 29.0267 37.7021 29.2875H37.6655C37.6653 29.2875 37.6651 29.2875 37.6648 29.2875C37.6645 29.2875 37.6643 29.2875 37.664 29.2875H35.7999V29.2055H35.8ZM33.5238 40.4852C32.9297 39.2197 33.1152 37.7654 34.0072 36.6907C35.1265 35.3422 35.8013 33.676 35.8 31.9219V30.4594H37.0789V34.9211C37.0789 37.1156 38.3123 39.027 40.1218 39.9999C40.0086 40.9342 39.411 41.7503 38.5327 42.1322L37.6024 42.5367H36.7531C35.3555 42.5367 34.1181 41.7506 33.5238 40.4852ZM53.9212 49.5931L52.9423 58.8281H35.2398L34.2609 49.5931C34.2431 49.4256 34.2953 49.2645 34.4079 49.1395C34.5205 49.0143 34.6752 48.9454 34.8435 48.9454H53.3386C53.5069 48.9454 53.6616 49.0143 53.7742 49.1395C53.8868 49.2645 53.939 49.4256 53.9212 49.5931ZM57.6562 58.8281H54.1207L55.0866 49.7167C55.1391 49.2217 54.9782 48.7257 54.6455 48.3557C54.3126 47.9857 53.8363 47.7735 53.3386 47.7735H50.982V44.2006L54.9118 45.8849C56.579 46.624 57.6562 48.2794 57.6562 50.1024V58.8281ZM44.091 51.6602C42.8633 51.6602 41.8645 52.659 41.8645 53.8867C41.8645 55.1145 42.8633 56.1133 44.091 56.1133C45.3187 56.1133 46.3176 55.1145 46.3176 53.8867C46.3176 52.659 45.3187 51.6602 44.091 51.6602ZM44.091 54.9414C43.5095 54.9414 43.0363 54.4683 43.0363 53.8867C43.0363 53.3052 43.5095 52.832 44.091 52.832C44.6726 52.832 45.1457 53.3052 45.1457 53.8867C45.1457 54.4683 44.6727 54.9414 44.091 54.9414Z" fill="white"/>
</g>
<defs>
<clipPath id="clip0_79_1252">
<rect width="40" height="40" fill="white" transform="translate(20 20)"/>
</clipPath>
</defs>
</svg>
