<svg width="80" height="80" viewBox="0 0 80 80" fill="none" xmlns="http://www.w3.org/2000/svg">
<circle cx="40" cy="40" r="40" fill="#27697B"/>
<path d="M35.9598 39.5877C36.1153 39.5877 36.2643 39.526 36.3743 39.416L37.2163 38.5742C37.9492 37.8413 38.9237 37.4376 39.9602 37.4376C40.9967 37.4376 41.9712 37.8413 42.7041 38.5742L43.546 39.4161C43.656 39.5261 43.8051 39.5878 43.9606 39.5878H46.8709C48.1679 39.5878 49.2231 38.5325 49.2231 37.2356V34.0996C49.2231 32.8025 48.1679 31.7473 46.8709 31.7473H36.8681C36.5442 31.7473 36.2818 32.0098 36.2818 32.3336C36.2818 32.6573 36.5442 32.9198 36.8681 32.9198H46.8707C47.5212 32.9198 48.0505 33.4491 48.0505 34.0996V37.2356C48.0505 37.8861 47.5212 38.4153 46.8707 38.4153H44.2032L43.5331 37.7452C42.5788 36.7908 41.3098 36.2652 39.9601 36.2652C38.6104 36.2652 37.3415 36.7908 36.3871 37.7452L35.717 38.4153H33.0495C32.3991 38.4153 31.8698 37.886 31.8698 37.2356V34.0996C31.8698 33.449 32.3991 32.9198 33.0495 32.9198H34.3697C34.6935 32.9198 34.9559 32.6573 34.9559 32.3336C34.9559 32.0098 34.6935 31.7473 34.3697 31.7473H33.0495C31.7525 31.7473 30.6973 32.8026 30.6973 34.0996V37.2356C30.6973 38.5326 31.7525 39.5878 33.0495 39.5878H35.9598V39.5877Z" fill="white"/>
<path d="M47.8419 43.6865L48.0945 41.7701C49.3264 41.4373 50.3587 40.6153 50.9699 39.5259H52.8209C53.4322 39.5259 53.9295 39.0286 53.9295 38.4173V36.4134C53.9295 36.2412 53.8539 36.0778 53.7227 35.9664C53.6321 35.8895 53.5801 35.7778 53.5801 35.6601C53.5801 35.5423 53.6321 35.4306 53.7227 35.3537C53.854 35.2423 53.9295 35.0789 53.9295 34.9068V32.558C53.9295 31.9468 53.4322 31.4495 52.8209 31.4495H50.7468C50.5792 31.2049 50.3892 30.9769 50.1795 30.7686V29.815C50.1795 25.5604 47.2007 21.9308 43.0608 21.0897C42.566 20.4286 41.7768 20 40.8894 20H39.0313C38.1439 20 37.3548 20.4286 36.86 21.0896C32.72 21.9308 29.7413 25.5603 29.7413 29.8149V30.7685C29.5315 30.9768 29.3417 31.2049 29.1739 31.4494H27.0999C26.4886 31.4494 25.9912 31.9467 25.9912 32.558V34.9067C25.9912 35.0788 26.0669 35.2423 26.198 35.3536C26.2886 35.4306 26.3406 35.5423 26.3406 35.66C26.3406 35.7777 26.2886 35.8895 26.198 35.9663C26.0668 36.0777 25.9912 36.2412 25.9912 36.4133V38.4172C25.9912 39.0285 26.4885 39.5258 27.0999 39.5258H28.9509C29.5621 40.6152 30.5945 41.4373 31.8262 41.77L32.0789 43.6864C32.4266 46.3236 34.0333 48.5713 36.3987 49.7542V51.735L30.6962 52.956C29.369 53.2402 28.168 53.9779 27.3147 55.0334C26.4612 56.0889 25.9912 57.4176 25.9912 58.775V59.4137C25.9912 59.7375 26.2536 60 26.5775 60C26.9013 60 27.1637 59.7375 27.1637 59.4137V58.775C27.1637 56.5364 28.7526 54.5713 30.9417 54.1026L34.3037 53.3827C34.9931 55.54 37.023 57.0545 39.3276 57.0545H40.6713C42.981 57.0545 45.0065 55.5416 45.6953 53.3827L46.8663 53.6334C46.9076 53.6423 46.949 53.6465 46.9896 53.6465C47.2602 53.6465 47.5033 53.4581 47.5623 53.1829C47.63 52.8663 47.4283 52.5546 47.1117 52.4869L43.6002 51.735V49.7139C45.9226 48.5209 47.4981 46.2944 47.8419 43.6865ZM42.4277 51.7805C42.4277 52.749 41.6398 53.537 40.6713 53.537H39.3276C38.3591 53.537 37.5712 52.749 37.5712 51.7805V50.2289C38.3488 50.4741 39.1545 50.5974 39.9603 50.5974C40.7932 50.5974 41.626 50.4661 42.4276 50.2041V51.7805H42.4277ZM52.757 32.6219V34.6715C52.5324 34.9494 52.4075 35.2969 52.4075 35.6601C52.4075 36.0232 52.5324 36.3707 52.757 36.6486V38.3534H51.4328C51.5207 37.9949 51.5683 37.6208 51.5683 37.2355V34.0995C51.5683 33.5834 51.4834 33.087 51.3289 32.6221H52.757V32.6219ZM39.0313 21.1725H40.8894C41.7376 21.1725 42.4277 21.8626 42.4277 22.7108V23.3637C42.4277 23.6874 42.6901 23.9499 43.014 23.9499C43.3378 23.9499 43.6002 23.6874 43.6002 23.3637V22.7108C43.6002 22.6172 43.5955 22.5247 43.5862 22.4335C46.7794 23.4256 49.007 26.3863 49.007 29.815V29.918C48.3657 29.5891 47.64 29.4022 46.871 29.4022H44.9774V29.0317C44.9774 28.1276 44.4032 27.3551 43.6002 27.0598V25.862C43.6002 25.5382 43.3378 25.2757 43.014 25.2757C42.6901 25.2757 42.4277 25.5382 42.4277 25.862V26.9313H37.493V22.7108C37.493 21.8626 38.1831 21.1725 39.0313 21.1725ZM37.0436 28.1039H42.8772C43.3887 28.1039 43.8049 28.52 43.8049 29.0316V29.4021H36.1159V29.0316C36.1159 28.5201 36.532 28.1039 37.0436 28.1039ZM30.9138 29.815C30.9138 26.3863 33.1413 23.4256 36.3346 22.4335C36.3253 22.5248 36.3205 22.6172 36.3205 22.7108V27.0597C35.5176 27.355 34.9433 28.1275 34.9433 29.0316V29.4021H33.0497C32.2808 29.4021 31.5551 29.589 30.9138 29.9179V29.815ZM27.1638 38.3533V36.6484C27.3884 36.3705 27.5133 36.0231 27.5133 35.6599C27.5133 35.2967 27.3884 34.9493 27.1638 34.6714V32.6217H28.5919C28.4375 33.0867 28.3525 33.5831 28.3525 34.0992V37.2352C28.3525 37.6204 28.4001 37.9946 28.488 38.3531H27.1638V38.3533ZM29.525 37.2354V34.0994C29.525 32.1558 31.1063 30.5746 33.0498 30.5746H35.5297H44.3912H46.8711C48.8146 30.5746 50.3959 32.1559 50.3959 34.0994V37.2354C50.3959 39.179 48.8146 40.7601 46.8711 40.7601H43.9109C43.4733 40.7601 43.0619 40.5897 42.7524 40.2803L41.8754 39.4032C41.3638 38.8918 40.6839 38.6101 39.9605 38.6101C39.2371 38.6101 38.5571 38.8918 38.0457 39.4032L37.1685 40.2803C36.8591 40.5897 36.4476 40.7601 36.0101 40.7601H33.0499C31.1062 40.7601 29.525 39.179 29.525 37.2354ZM33.2414 43.5332L33.0303 41.9323C33.0368 41.9323 33.0433 41.9327 33.0498 41.9327H36.01C36.7608 41.9327 37.4667 41.6404 37.9975 41.1095L38.8747 40.2324C39.1647 39.9424 39.5503 39.7827 39.9605 39.7827C40.3706 39.7827 40.7562 39.9424 41.0463 40.2324L41.9234 41.1095C42.4543 41.6404 43.1602 41.9327 43.911 41.9327H46.8712C46.8777 41.9327 46.8842 41.9323 46.8907 41.9323L46.6796 43.5332C46.3724 45.8634 44.9126 47.837 42.7744 48.8128C40.9861 49.629 38.935 49.629 37.1468 48.8128C35.0084 47.8369 33.5485 45.8633 33.2414 43.5332ZM40.6713 55.882H39.3276C37.5743 55.882 36.0249 54.7553 35.4564 53.136L36.6165 52.8876C37.0541 53.9553 38.1042 54.7095 39.3276 54.7095H40.6712C41.8946 54.7095 42.9446 53.9553 43.3822 52.8876L44.5422 53.1359C43.9744 54.7564 42.4285 55.882 40.6713 55.882Z" fill="white"/>
<path d="M39.9604 43.9241C40.9676 43.9241 41.7871 43.1047 41.7871 42.0975C41.7871 41.7737 41.5246 41.5112 41.2008 41.5112C40.8769 41.5112 40.6145 41.7737 40.6145 42.0975C40.6145 42.4582 40.3211 42.7516 39.9604 42.7516C39.5998 42.7516 39.3063 42.4582 39.3063 42.0975C39.3063 41.7737 39.0439 41.5112 38.7201 41.5112C38.3962 41.5112 38.1338 41.7737 38.1338 42.0975C38.1337 43.1047 38.9532 43.9241 39.9604 43.9241Z" fill="white"/>
<path d="M39.4585 48.4111H40.4619C41.4336 48.4111 42.2241 47.6205 42.2241 46.6488C42.2241 45.6771 41.4336 44.8865 40.4619 44.8865H39.4585C38.4868 44.8865 37.6963 45.6771 37.6963 46.6488C37.6963 47.6205 38.4868 48.4111 39.4585 48.4111ZM39.4585 46.059H40.4619C40.7871 46.059 41.0516 46.3236 41.0516 46.6488C41.0516 46.974 40.7871 47.2386 40.4619 47.2386H39.4585C39.1333 47.2386 38.8688 46.974 38.8688 46.6488C38.8688 46.3236 39.1333 46.059 39.4585 46.059Z" fill="white"/>
<path d="M49.5833 53.0236C49.2704 52.9408 48.9494 53.1271 48.8664 53.4401C48.7834 53.7531 48.97 54.0741 49.2829 54.157C51.3746 54.7111 52.8353 56.6101 52.8353 58.7749V59.4137C52.8353 59.7374 53.0977 59.9999 53.4216 59.9999C53.7454 59.9999 54.0078 59.7374 54.0078 59.4137V58.7749C54.0079 56.0788 52.1884 53.7138 49.5833 53.0236Z" fill="white"/>
</svg>
