<svg width="80" height="80" viewBox="0 0 80 80" fill="none" xmlns="http://www.w3.org/2000/svg">
<circle cx="40" cy="40" r="40" fill="#27697B"/>
<path d="M36.3785 58.2083C36.2862 58.2083 36.1942 58.1883 36.1086 58.1486C36.066 58.1286 31.7172 56.0318 27.5662 51.459C25.2409 48.8974 23.4321 46.0606 22.19 43.0278C20.6446 39.2542 19.9772 35.1659 20.206 30.8763C20.2222 30.5731 20.4492 30.323 20.7494 30.2777C24.7393 29.6747 28.4494 28.1558 31.7764 25.7633C34.1372 24.0654 35.5169 22.4731 35.8836 22.0257C36.0052 21.8774 36.1868 21.7913 36.3788 21.7913C36.5705 21.7913 36.7524 21.8774 36.874 22.0257L36.8996 22.0571C37.6254 22.9502 40.3686 26.0347 45.198 28.2291C45.5198 28.3753 45.662 28.7547 45.5158 29.0766C45.3697 29.3985 44.9902 29.5409 44.6684 29.3945C42.3689 28.3497 40.2566 27.0014 38.3897 25.387C37.8438 24.9147 37.0924 24.2214 36.3729 23.4126C35.6761 24.1766 34.3841 25.4643 32.5236 26.8022C30.9846 27.9089 29.3324 28.8534 27.6129 29.6091C25.6446 30.4742 23.5774 31.0958 21.4609 31.459C21.1966 38.7123 23.5678 45.1497 28.514 50.5985C30.1038 52.3499 31.9828 53.9934 33.9476 55.351C35.0889 56.1395 35.9628 56.6297 36.3796 56.8502C37.2046 56.4169 39.7998 54.9507 42.5942 52.3217C46.8998 48.2705 49.6446 43.4766 50.7518 38.0729C50.8228 37.7265 51.1614 37.5035 51.5073 37.5745C51.8537 37.6454 52.0769 37.9835 52.0057 38.3299C51.3681 41.4414 50.1873 44.4059 48.4961 47.1411C47.1374 49.3387 45.4468 51.3953 43.4713 53.2539C39.8956 56.6182 36.6806 58.1334 36.6486 58.1483C36.5628 58.1883 36.4705 58.2083 36.3785 58.2083Z" fill="white"/>
<path d="M36.3784 54.4656C36.2861 54.4656 36.1941 54.4456 36.1085 54.4059C36.0746 54.3902 32.6272 52.728 29.3426 49.1094C27.5021 47.0816 26.0701 44.8358 25.0866 42.4344C23.8626 39.4459 23.3341 36.2086 23.5151 32.8128C23.5314 32.5096 23.7583 32.2595 24.0586 32.2142C27.177 31.743 30.0768 30.5558 32.6773 28.6856C34.5218 27.359 35.5978 26.1176 35.8834 25.7686C36.005 25.6203 36.1866 25.5342 36.3786 25.5342C36.5706 25.5342 36.7522 25.6203 36.8738 25.7686L36.9 25.8008C37.5946 26.6587 40.2234 29.5864 44.8904 31.2403C45.2234 31.3584 45.3978 31.724 45.2799 32.0574C45.1618 32.3904 44.7962 32.5648 44.4629 32.447C42.2101 31.6486 40.1429 30.487 38.3189 28.9939C37.7898 28.5608 37.0642 27.9195 36.3714 27.1512C35.7986 27.7667 34.8104 28.7286 33.425 29.7251C32.2061 30.6016 30.8976 31.3496 29.5357 31.9483C28.0103 32.6187 26.4104 33.1043 24.772 33.3947C24.5933 39.0211 26.4485 44.0168 30.2909 48.2499C32.8837 51.1062 35.5421 52.6584 36.3797 53.1072C37.1173 52.7147 39.2562 51.4816 41.4879 49.311C45.0101 45.8856 47.1247 41.823 47.7733 37.2363C47.8229 36.8864 48.1466 36.6427 48.4965 36.6923C48.8464 36.7416 49.0901 37.0656 49.0405 37.4155C47.361 49.295 36.7557 54.3568 36.6488 54.4067C36.5626 54.4456 36.4704 54.4656 36.3784 54.4656Z" fill="white"/>
<path d="M51.9094 38.861C49.791 38.861 47.7993 38.0362 46.3014 36.5389C44.8033 35.0413 43.9785 33.0501 43.9785 30.9322C43.9785 28.8144 44.8036 26.8232 46.3014 25.3256C47.7993 23.828 49.791 23.0034 51.9094 23.0034C54.0278 23.0034 56.0196 23.8282 57.5174 25.3256C59.0156 26.8232 59.8404 28.8144 59.8404 30.9322C59.8404 33.0501 59.0153 35.0413 57.5174 36.5389C56.0193 38.0362 54.0278 38.861 51.9094 38.861ZM51.9094 24.2832C48.242 24.2832 45.2585 27.2658 45.2585 30.932C45.2585 34.5981 48.2422 37.5808 51.9094 37.5808C55.5766 37.5808 58.5604 34.5984 58.5604 30.9322C58.5604 27.2661 55.5766 24.2832 51.9094 24.2832Z" fill="white"/>
<path d="M49.8991 34.0289C49.7261 34.0289 49.5538 33.959 49.4279 33.8219L47.7362 31.9819C47.497 31.7217 47.5141 31.3169 47.7741 31.0777C48.0341 30.8385 48.4391 30.8555 48.6783 31.1155L49.9511 32.4998L55.197 27.9897C55.465 27.7593 55.869 27.7897 56.0994 28.0577C56.3298 28.3257 56.2994 28.7297 56.0314 28.9603L50.3162 33.8742C50.1954 33.9777 50.0469 34.0289 49.8991 34.0289Z" fill="white"/>
<path d="M36.7238 43.477C34.7862 43.477 33.21 41.9007 33.21 39.9631C33.21 38.0255 34.7862 36.4492 36.7238 36.4492C38.6614 36.4492 40.2377 38.0255 40.2377 39.9631C40.2377 41.9007 38.6612 43.477 36.7238 43.477ZM36.7238 37.7295C35.4921 37.7295 34.49 38.7316 34.49 39.9634C34.49 41.1951 35.4921 42.1972 36.7238 42.1972C37.9556 42.1972 38.9577 41.1951 38.9577 39.9634C38.9577 38.7316 37.9553 37.7295 36.7238 37.7295Z" fill="white"/>
<path d="M37.529 47.7547H35.5821C35.2562 47.7547 34.9821 47.5096 34.9461 47.1856L34.788 45.7688C34.4176 45.6453 34.0605 45.4869 33.72 45.2947L32.6373 46.1597C32.3826 46.3632 32.0157 46.3429 31.7853 46.1123L30.4085 44.7355C30.1781 44.5051 30.1576 44.1381 30.361 43.8835L31.272 42.7437C31.0978 42.4032 30.9568 42.0483 30.8498 41.6813L29.4538 41.5256C29.1298 41.4893 28.8848 41.2155 28.8848 40.8896V38.9427C28.8848 38.6165 29.1298 38.3427 29.4538 38.3067L30.8789 38.1477C30.9949 37.7731 31.1469 37.4115 31.333 37.0659L30.4797 35.9981C30.2762 35.7435 30.2965 35.3765 30.5272 35.1461L31.904 33.7693C32.1344 33.5387 32.5013 33.5184 32.756 33.7219L33.8232 34.5747C34.189 34.3771 34.5728 34.2184 34.9706 34.0997L35.1141 32.8147C35.1504 32.4907 35.4242 32.2456 35.7501 32.2456H37.697C38.0229 32.2456 38.297 32.4907 38.333 32.8147L38.4765 34.0997C38.896 34.2248 39.2994 34.3944 39.6829 34.6069L40.6418 33.8405C40.8965 33.6371 41.2634 33.6573 41.4938 33.888L42.8706 35.2648C43.101 35.4952 43.1216 35.8624 42.9181 36.1168L42.1322 37.1003C42.3421 37.4952 42.5066 37.9101 42.6248 38.3408L43.8253 38.4747C44.1493 38.5109 44.3944 38.7848 44.3944 39.1107V41.0576C44.3944 41.3837 44.1493 41.6576 43.8253 41.6936L42.5501 41.836C42.4168 42.2515 42.2397 42.6499 42.0205 43.0277L42.7994 44.0024C43.0029 44.2571 42.9826 44.624 42.752 44.8544L41.3752 46.2312C41.1448 46.4616 40.7776 46.4821 40.5232 46.2787L39.4661 45.4339C39.0965 45.6195 38.7106 45.7664 38.3117 45.8733L38.1653 47.1859C38.129 47.5096 37.8552 47.7547 37.529 47.7547ZM36.1546 46.4747H36.9565L37.0898 45.2789C37.121 44.9987 37.3322 44.7717 37.6096 44.7205C38.1738 44.6163 38.7104 44.4136 39.2037 44.1184C39.4328 43.9813 39.7232 44.0008 39.932 44.1677L40.8749 44.9213L41.4418 44.3544L40.7357 43.4707C40.5594 43.2501 40.5485 42.94 40.709 42.7075C41.0477 42.2168 41.2896 41.6755 41.4282 41.0981C41.4912 40.836 41.7117 40.6416 41.9794 40.6117L43.1141 40.4851V39.6832L42.033 39.5627C41.7541 39.5315 41.5282 39.3224 41.4754 39.0469C41.3621 38.4549 41.1408 37.8952 40.8178 37.384C40.6722 37.1533 40.6888 36.8557 40.8589 36.6427L41.5605 35.7648L40.9936 35.1979L40.1336 35.8853C39.917 36.0584 39.6133 36.0723 39.3818 35.9197C38.8832 35.5912 38.3354 35.3605 37.7538 35.2347C37.4853 35.1765 37.2837 34.9533 37.2533 34.6803L37.1245 33.5259H36.3226L36.1938 34.6803C36.1634 34.9533 35.9618 35.1765 35.6933 35.2347C35.1309 35.3565 34.5994 35.5765 34.1136 35.8883C33.8824 36.0365 33.5826 36.0211 33.3682 35.8496L32.404 35.0789L31.837 35.6459L32.608 36.6104C32.7792 36.8248 32.7949 37.1245 32.6469 37.3555C32.3464 37.8243 32.1309 38.3365 32.0069 38.8779C31.9461 39.1432 31.7245 39.3408 31.4541 39.3712L30.1648 39.5152V40.3171L31.433 40.4587C31.7077 40.4893 31.9317 40.6928 31.9885 40.9632C32.1008 41.4981 32.3024 42.0069 32.5872 42.4749C32.7269 42.7045 32.7082 42.9971 32.5405 43.2072L31.7186 44.2357L32.2856 44.8027L33.2725 44.0139C33.4906 43.8395 33.797 43.8267 34.029 43.9827C34.4904 44.2928 34.9968 44.5187 35.5336 44.6544C35.7922 44.7197 35.9832 44.9387 36.0128 45.204L36.1546 46.4747Z" fill="white"/>
</svg>
