<svg width="44" height="44" viewBox="0 0 44 44" fill="none" xmlns="http://www.w3.org/2000/svg">
<g clip-path="url(#clip0_79_4811)">
<path d="M17.6559 28.6675C16.2721 28.6675 15.1504 29.7893 15.1504 31.173C15.1504 32.5568 16.2722 33.6786 17.6559 33.6786C19.0398 33.6786 20.1615 32.5568 20.1615 31.173C20.1616 29.7893 19.0398 28.6675 17.6559 28.6675ZM17.6559 32.5651C16.8872 32.5651 16.264 31.9419 16.264 31.1731C16.264 30.4043 16.8872 29.7811 17.6559 29.7811C18.4247 29.7811 19.0479 30.4043 19.0479 31.1731C19.048 31.9419 18.4247 32.5651 17.6559 32.5651Z" fill="white"/>
<path d="M28.235 28.6675C26.8512 28.6675 25.7295 29.7893 25.7295 31.173C25.7295 32.5568 26.8513 33.6786 28.235 33.6786C29.6188 33.6786 30.7406 32.5568 30.7406 31.173C30.7406 29.7893 29.6189 28.6675 28.235 28.6675ZM28.235 32.5651C27.4663 32.5651 26.8431 31.9419 26.8431 31.1731C26.8431 30.4043 27.4663 29.7811 28.235 29.7811C29.0038 29.7811 29.627 30.4043 29.627 31.1731C29.6271 31.9419 29.0038 32.5651 28.235 32.5651Z" fill="white"/>
<path d="M33.8865 14.0519C33.7705 13.9252 33.6119 13.8459 33.4411 13.8291L15.3174 13.5786L14.8163 12.0474C14.4633 11.0238 13.5047 10.3327 12.4221 10.3213H10.5568C10.2493 10.3213 10 10.5706 10 10.8781C10 11.1856 10.2493 11.4349 10.5568 11.4349H12.4221C13.0274 11.4483 13.5605 11.837 13.7584 12.4093L17.294 23.0719L17.0157 23.7122C16.7052 24.5129 16.7984 25.4141 17.2662 26.1343C17.7296 26.8416 18.509 27.2781 19.3542 27.3035H30.1839C30.4914 27.3035 30.7407 27.0543 30.7407 26.7467C30.7407 26.4392 30.4914 26.19 30.1839 26.19H19.3542C18.8769 26.178 18.4375 25.9269 18.1849 25.5218C17.9351 25.1216 17.8838 24.6286 18.0457 24.1855L18.2684 23.6843L29.989 22.4594C31.2764 22.3176 32.3354 21.3812 32.6338 20.1208L33.9701 14.525C34.0303 14.3639 33.9983 14.1827 33.8865 14.0519ZM31.548 19.8703C31.3673 20.6817 30.6784 21.2801 29.8498 21.3458L18.2684 22.5429L15.6793 14.6922L32.7451 14.9427L31.548 19.8703Z" fill="white"/>
</g>
<defs>
<clipPath id="clip0_79_4811">
<rect width="24" height="24" fill="white" transform="translate(10 10)"/>
</clipPath>
</defs>
</svg>
