<svg width="200" height="56" viewBox="0 0 200 56" fill="none" xmlns="http://www.w3.org/2000/svg">
<g clip-path="url(#clip0_79_4769)">
<path d="M22.353 6.28077C30.0506 6.28077 36.4803 11.6841 38.0651 18.8987L44.4193 18.8534C42.7439 8.18251 33.5069 0.0170898 22.353 0.0170898C10.0068 0.0170898 0 10.0239 0 22.3701C0 23.4116 0 24.4228 0.211305 25.4189L6.52026 25.2982H10.369C11.7576 30.7318 16.678 34.7465 22.5342 34.7465C29.477 34.7465 35.1219 29.1168 35.1219 22.1588C35.1219 15.2009 29.4921 9.57109 22.5342 9.57109C16.7384 9.57109 11.8633 13.4953 10.4143 18.8232H6.64101C8.24089 11.6238 14.6706 6.23549 22.353 6.23549" fill="white"/>
<path d="M16.1045 22.1743C16.1045 18.6123 18.9873 15.7295 22.5493 15.7295C26.1113 15.7295 28.9941 18.6123 28.9941 22.1743C28.9941 25.7363 26.1113 28.6191 22.5493 28.6191C18.9873 28.6191 16.1045 25.7363 16.1045 22.1743Z" fill="#00ADDC"/>
<path fill-rule="evenodd" clip-rule="evenodd" d="M57.9424 29.5241H62.7722V19.2154H75.8429V29.5241H80.6727V7.21631H75.8429V16.6345H62.7722V7.21631H57.9424V29.5241Z" fill="white"/>
<path fill-rule="evenodd" clip-rule="evenodd" d="M186.87 29.5241H191.699V9.81234H200.001V7.21631H178.568V9.81234H186.87V29.5241Z" fill="white"/>
<path fill-rule="evenodd" clip-rule="evenodd" d="M148.562 29.5241H153.377V19.2154H166.463V29.5241H171.293V7.21631H166.463V16.6345H153.377V7.21631H148.562V29.5241Z" fill="white"/>
<path fill-rule="evenodd" clip-rule="evenodd" d="M139.008 25.555C138.133 25.9172 135.341 27.3058 131.235 27.3058C124.338 27.3058 122.315 23.2005 122.315 17.6009C122.315 14.5672 123.176 9.45057 129.454 9.45057C134.133 9.45057 134.722 11.9711 134.722 13.3295H140.321C140.321 9.51094 136.412 6.86963 129.605 6.86963C119.9 6.86963 117.018 12.2126 117.018 18.1292C117.018 26.853 122.949 29.9019 130.285 29.9019C134.194 29.9019 137.62 28.9963 139.023 28.5737V25.5701L139.008 25.555Z" fill="white"/>
<path fill-rule="evenodd" clip-rule="evenodd" d="M91.6006 29.5241H110.422V26.9431H96.4304V19.2154H109.32V16.6345H96.4304V9.81234H109.984V7.21631H91.6006V29.5241Z" fill="white"/>
<path d="M62.0779 48.8734C63.4211 49.5979 64.8097 50.3676 64.8097 52.3901C64.8097 55.0918 62.6363 55.9823 60.4176 55.9823C58.9083 55.9823 58.0178 55.7257 57.7159 55.6653V54.5334C58.1385 54.6692 58.9837 54.9258 60.6893 54.9258C62.2137 54.9258 63.6928 54.0655 63.6928 52.5561C63.6928 50.8808 62.1835 50.3223 61.3987 49.8696L60.3421 49.296C59.1649 48.647 57.5801 47.9376 57.5801 46.0057C57.5801 45.4623 57.8065 42.7305 61.4892 42.7305C62.5005 42.7305 63.5872 42.9267 64.04 43.0474V44.2247C63.6324 44.0738 62.6665 43.8021 61.4892 43.8021C59.5573 43.8021 58.697 44.7228 58.697 45.9302C58.697 47.1377 59.9195 47.7414 60.976 48.315L62.0779 48.8885V48.8734Z" fill="white"/>
<path d="M69.1123 42.9272H70.4858V44.4366H69.1123V42.9272ZM69.3236 46.9119H70.2594V55.7716H69.3236V46.9119Z" fill="white"/>
<path d="M80.8396 55.817C80.4622 55.9075 80.0245 55.983 79.3151 55.983C76.2965 55.983 74.9834 54.036 74.9834 51.2135C74.9834 48.5571 75.9494 46.7007 78.3341 46.7007C80.8848 46.7007 81.1716 48.6477 81.1716 49.4627H79.9642C79.9642 48.4817 79.4208 47.6063 78.319 47.6063C76.6436 47.6063 76.1003 49.4326 76.1003 51.0626C76.1003 53.553 77.187 55.0925 79.4661 55.0925C80.1906 55.0925 80.5075 55.0019 80.8396 54.9265V55.817Z" fill="white"/>
<path d="M85.4731 42.9272H86.4089V49.0853H86.4391C86.7107 48.225 87.239 46.7005 89.3822 46.7005C89.8652 46.7005 91.7066 46.9873 91.7066 49.2211V55.7716H90.7708V50.1871C90.7708 49.2664 90.7708 47.6061 89.186 47.6061C87.6012 47.6061 86.3938 49.9758 86.3938 52.3907V55.7867H85.458V42.9423L85.4731 42.9272Z" fill="white"/>
<path d="M100.914 55.9073C100.597 55.9677 100.28 55.9828 99.9628 55.9828C97.6535 55.9828 97.6082 54.4735 97.6082 53.8094V47.8174H96.1895V46.9269H97.6082V44.8742L98.544 44.2554V46.9118H100.914V47.8023H98.544V53.4019C98.544 53.9905 98.544 55.0772 99.9929 55.0772C100.536 55.0772 100.657 54.9866 100.899 54.9112V55.9073H100.914Z" fill="white"/>
<path d="M105.788 48.5867H105.819C106.03 47.8924 106.649 46.7 108.294 46.7C110.497 46.7 111.373 49.0546 111.373 51.4242C111.373 53.9598 110.331 55.9672 107.947 55.9672C105.788 55.9672 104.853 54.2617 104.853 52.1336V42.9116H105.788V48.5716V48.5867ZM107.947 55.0918C109.637 55.0918 110.256 53.2354 110.256 51.4242C110.256 49.8998 109.773 47.6056 108.188 47.6056C106.603 47.6056 105.819 49.7639 105.819 51.5751C105.819 53.0844 106.196 55.0918 107.947 55.0918Z" fill="white"/>
<path d="M120.233 54.5341H120.202C119.87 55.017 119.07 55.983 117.44 55.983C115.689 55.983 115.191 54.6095 115.191 53.6134C115.191 50.7608 119.146 50.7758 120.233 50.7608C120.233 50.2929 120.233 49.1911 120.157 48.8741C119.931 47.8176 119.025 47.5912 118.316 47.5912C116.912 47.5912 116.625 48.3157 116.474 49.025H115.342C115.342 48.0893 116.052 46.7007 118.391 46.7007C121.123 46.7007 121.168 48.527 121.168 49.7193V55.7717H120.233V54.519V54.5341ZM119.312 51.6663C117.667 51.6663 116.308 52.3003 116.308 53.6587C116.308 54.4284 116.942 54.8661 117.621 54.8661C118.557 54.8661 119.418 54.3077 119.825 53.6436C120.097 53.1455 120.233 52.6927 120.233 51.6663H119.297H119.312Z" fill="white"/>
<path d="M126.497 46.9115H127.432V48.7227H127.462C127.855 47.6209 128.64 46.7153 130.27 46.7153V47.7266C127.885 47.7266 127.417 50.4584 127.417 52.2093V55.7863H126.481V46.9266L126.497 46.9115Z" fill="white"/>
<path d="M141.952 48.5867H141.997C142.209 47.8924 142.827 46.7 144.472 46.7C146.676 46.7 147.552 49.0546 147.552 51.4242C147.552 53.9598 146.51 55.9672 144.125 55.9672C141.967 55.9672 141.031 54.2617 141.031 52.1336V42.9116H141.967V48.5716L141.952 48.5867ZM144.11 55.0918C145.801 55.0918 146.42 53.2354 146.42 51.4242C146.42 49.8998 145.937 47.6056 144.352 47.6056C142.767 47.6056 141.982 49.7639 141.982 51.5751C141.982 53.0844 142.359 55.0918 144.11 55.0918Z" fill="white"/>
<path d="M157.559 55.7562C157.016 55.892 156.367 55.9826 155.627 55.9826C152.91 55.9826 151.416 54.2166 151.416 51.1075C151.416 48.1794 152.623 46.7153 154.782 46.7153C156.94 46.7153 157.74 48.4058 157.74 49.9V50.3679H152.548C152.533 50.6848 152.533 50.9867 152.533 51.2735C152.533 51.9376 152.548 55.0921 155.944 55.0921C156.442 55.0921 157.121 55.0015 157.559 54.8506V55.7562ZM156.638 49.4623C156.638 48.9189 156.261 47.6058 154.782 47.6058C153.152 47.6058 152.79 48.8887 152.684 49.4623H156.653H156.638Z" fill="white"/>
<path d="M165.075 50.8207C166.011 51.2735 167.158 51.6961 167.158 53.296C167.158 54.594 166.464 55.9826 163.762 55.9826C162.947 55.9826 161.875 55.7562 161.438 55.6052V54.6544C161.724 54.7449 162.781 55.077 163.762 55.077C165.332 55.077 166.041 54.3676 166.041 53.4016C166.041 52.3602 165.015 51.9678 164.456 51.7112L163.717 51.364C162.841 50.9414 161.498 50.4735 161.498 49.0548C161.498 47.7115 162.343 46.7153 164.426 46.7153C165.452 46.7153 166.192 46.9266 166.584 47.0172V47.9832C166.252 47.8775 165.467 47.6058 164.501 47.6058C163.279 47.6058 162.615 48.1794 162.615 48.8737C162.615 49.7943 163.566 50.1113 164.305 50.4584L165.06 50.8358L165.075 50.8207Z" fill="white"/>
<path d="M174.206 50.8207C175.142 51.2735 176.289 51.6961 176.289 53.296C176.289 54.594 175.594 55.9826 172.893 55.9826C172.078 55.9826 171.006 55.7562 170.568 55.6052V54.6544C170.84 54.7449 171.912 55.077 172.893 55.077C174.462 55.077 175.172 54.3676 175.172 53.4016C175.172 52.3602 174.145 51.9678 173.587 51.7112L172.832 51.364C171.957 50.9414 170.614 50.4735 170.614 49.0548C170.614 47.7115 171.459 46.7153 173.542 46.7153C174.568 46.7153 175.308 46.9266 175.7 47.0172V47.9832C175.368 47.8775 174.583 47.6058 173.617 47.6058C172.395 47.6058 171.731 48.1794 171.731 48.8737C171.731 49.7943 172.681 50.1113 173.421 50.4584L174.191 50.8358L174.206 50.8207Z" fill="white"/>
<path d="M185.948 55.7562C185.404 55.892 184.755 55.9826 184.016 55.9826C181.299 55.9826 179.805 54.2166 179.805 51.1075C179.805 48.1794 181.012 46.7153 183.17 46.7153C185.329 46.7153 186.129 48.4058 186.129 49.9V50.3679H180.937C180.922 50.6848 180.922 50.9867 180.922 51.2735C180.922 51.9376 180.937 55.0921 184.333 55.0921C184.831 55.0921 185.51 55.0015 185.948 54.8506V55.7562ZM185.012 49.4623C185.012 48.9189 184.635 47.6058 183.155 47.6058C181.51 47.6058 181.163 48.8887 181.057 49.4623H185.027H185.012Z" fill="white"/>
<path d="M190.703 46.9115H191.639V48.7227H191.684C192.077 47.6209 192.861 46.7153 194.492 46.7153V47.7266C192.107 47.7266 191.639 50.4584 191.639 52.2093V55.7863H190.703V46.9266V46.9115Z" fill="white"/>
</g>
<defs>
<clipPath id="clip0_79_4769">
<rect width="200" height="55.9656" fill="white" transform="translate(0 0.0170898)"/>
</clipPath>
</defs>
</svg>
