<svg width="44" height="44" viewBox="0 0 44 44" fill="none" xmlns="http://www.w3.org/2000/svg">
<g clip-path="url(#clip0_79_4805)">
<path d="M33.7733 32.6948L27.5768 26.5974C29.1995 24.8344 30.1965 22.5029 30.1965 19.9373C30.1957 14.449 25.6752 10.0005 20.0983 10.0005C14.5215 10.0005 10.001 14.449 10.001 19.9373C10.001 25.4256 14.5215 29.8741 20.0983 29.8741C22.5079 29.8741 24.7179 29.0407 26.4538 27.6551L32.6743 33.7765C32.9774 34.0751 33.4695 34.0751 33.7726 33.7765C34.0763 33.478 34.0763 32.9934 33.7733 32.6948ZM20.0983 28.3453C15.3798 28.3453 11.5546 24.5809 11.5546 19.9373C11.5546 15.2937 15.3798 11.5293 20.0983 11.5293C24.817 11.5293 28.6421 15.2937 28.6421 19.9373C28.6421 24.5809 24.817 28.3453 20.0983 28.3453Z" fill="white"/>
</g>
<defs>
<clipPath id="clip0_79_4805">
<rect width="24" height="24" fill="white" transform="translate(10 10)"/>
</clipPath>
</defs>
</svg>
