<svg width="25" height="16" viewBox="0 0 25 16" fill="none" xmlns="http://www.w3.org/2000/svg">
<path fill-rule="evenodd" clip-rule="evenodd" d="M0.829655 7.99945C0.829655 8.21943 0.917038 8.43039 1.07258 8.58594C1.22813 8.74148 1.43909 8.82886 1.65907 8.82886L21.2216 8.82886L16.0013 14.0475C15.8455 14.2033 15.758 14.4145 15.758 14.6348C15.758 14.855 15.8455 15.0662 16.0013 15.222C16.157 15.3777 16.3682 15.4652 16.5885 15.4652C16.8087 15.4652 17.02 15.3777 17.1757 15.222L23.811 8.58668C23.8883 8.50963 23.9495 8.4181 23.9914 8.31734C24.0332 8.21657 24.0547 8.10855 24.0547 7.99945C24.0547 7.89036 24.0332 7.78233 23.9914 7.68157C23.9495 7.5808 23.8883 7.48927 23.811 7.41223L17.1757 0.776927C17.0986 0.699812 17.0071 0.638641 16.9063 0.596906C16.8055 0.555172 16.6976 0.533691 16.5885 0.533691C16.3682 0.533691 16.157 0.621186 16.0013 0.776927C15.8455 0.932669 15.758 1.1439 15.758 1.36415C15.758 1.5844 15.8455 1.79563 16.0013 1.95138L21.2216 7.17004L1.65907 7.17004C1.43909 7.17004 1.22813 7.25742 1.07258 7.41297C0.917038 7.56851 0.829655 7.77948 0.829655 7.99945Z" fill="white"/>
</svg>
